# xmcd
#
# Track frame offsets: 
#        150
#        21999
#        37998
#        54188
#        69960
#        91159
#        113832
#        136409
#        156285
#        178019
#        189364
#        205803
#        218861
#        237492
#        258052
#
# Disc length: 3779 seconds
#
# Revision: 8
# Processed by: cddbd v1.5.2PL0 Copyright (c) Steve Scherf et al.
# Submitted via: ExactAudioCopy v1.0b3
#
DISCID=c60ec10f
DTITLE=斉藤和義 - 歌うたい１５ SINGLES BEST 1993-2007[Disc1]
DYEAR=2008
DGENRE=JPop
TTITLE0=僕の見たビートルズはＴＶの中
TTITLE1=Rain Rain Rain
TTITLE2=君の顔が好きだ
TTITLE3=歩いて帰ろう（シングルバージョン）
TTITLE4=彼女（シングルバージョン）
TTITLE5=Deja Vu
TTITLE6=ポストにマヨネーズ
TTITLE7=通りに立てば（シングルバージョン）
TTITLE8=大丈夫
TTITLE9=空に星が綺麗
TTITLE10=砂漠に赤い花
TTITLE11=Baby, I Love You
TTITLE12=郷愁
TTITLE13=進め　なまけもの
TTITLE14=幸福な朝食　退屈な夕食
EXTD=YEAR: 2008
EXTT0=
EXTT1=
EXTT2=
EXTT3=
EXTT4=
EXTT5=
EXTT6=
EXTT7=
EXTT8=
EXTT9=
EXTT10=
EXTT11=
EXTT12=
EXTT13=
EXTT14=
PLAYORDER=
